<svg xmlns="http://www.w3.org/2000/svg" viewBox="0 0 27 25"><path class="cls-1" d="M23.06,4a13.92,13.92,0,0,1-1.33,20.66.9.9,0,0,1-.68.29.87.87,0,0,1-.68-.29.92.92,0,0,1-.28-.69,1.06,1.06,0,0,1,.36-.78,11,11,0,0,0,2.63-2.82l-1.15-.7a.81.81,0,0,1-.4-.51.89.89,0,0,1,.1-.65.74.74,0,0,1,.5-.4.94.94,0,0,1,.65.08l1.16.68a11.94,11.94,0,0,0,1.13-4.29H23.72a.84.84,0,0,1-.61-.24.88.88,0,0,1-.24-.62.84.84,0,0,1,.24-.62.81.81,0,0,1,.61-.25h1.35a12.21,12.21,0,0,0-1.13-4.31l-1.16.67a.85.85,0,0,1-.65.1.83.83,0,0,1-.5-.4.93.93,0,0,1-.1-.65.83.83,0,0,1,.4-.52l1.16-.67A12.18,12.18,0,0,0,20,3.94l-.69,1.18a.76.76,0,0,1-.5.4.82.82,0,0,1-.64-.1.77.77,0,0,1-.39-.51,1,1,0,0,1,.08-.66l.69-1.18a11.55,11.55,0,0,0-4.23-1.15V3.29a.84.84,0,0,1-.24.62.86.86,0,0,1-1.21,0,.85.85,0,0,1-.25-.62V1.92A11.61,11.61,0,0,0,8.4,3.07l.66,1.19a.86.86,0,0,1,.09.66.81.81,0,0,1-.39.51.83.83,0,0,1-.63.09.78.78,0,0,1-.51-.4L7,3.94A12.34,12.34,0,0,0,3.9,7.12l1.17.67a.84.84,0,0,1,.39.52.87.87,0,0,1-.1.65.8.8,0,0,1-1.14.3L3.05,8.59A12.15,12.15,0,0,0,1.92,12.9H3.27a.79.79,0,0,1,.6.25.81.81,0,0,1,.25.62.85.85,0,0,1-.85.87H1.92a12.15,12.15,0,0,0,1.13,4.3l1.16-.7a.88.88,0,0,1,.65-.08.74.74,0,0,1,.5.4.86.86,0,0,1,.09.64.77.77,0,0,1-.39.51l-1.16.71a11.55,11.55,0,0,0,2.55,2.76,1,1,0,0,1,.48.84.93.93,0,0,1-.29.69A.9.9,0,0,1,6,25a.85.85,0,0,1-.59-.22v0A13.94,13.94,0,0,1,1.44,20,14.08,14.08,0,0,1,0,13.77,13.82,13.82,0,0,1,3.94,4,13.38,13.38,0,0,1,23.06,4ZM18.28,9.21a.9.9,0,0,1,.56.32.85.85,0,0,1,.17.63.9.9,0,0,1-.31.57l-3.32,2.65c0,.13,0,.25,0,.38a2,2,0,0,1-.56,1.36,1.76,1.76,0,0,1-1.35.55,1.79,1.79,0,0,1-1.35-.55,2.06,2.06,0,0,1,0-2.76,1.77,1.77,0,0,1,1.35-.55,1.93,1.93,0,0,1,.85.2l3.32-2.64A.85.85,0,0,1,18.28,9.21Z" fill="currentColor"/></svg>