<?xml version="1.0" standalone="no"?><!DOCTYPE svg PUBLIC "-//W3C//DTD SVG 1.1//EN" "http://www.w3.org/Graphics/SVG/1.1/DTD/svg11.dtd"><svg t="1723790005624" class="icon" viewBox="0 0 1024 1024" version="1.1" xmlns="http://www.w3.org/2000/svg" p-id="4122" width="50" height="50" xmlns:xlink="http://www.w3.org/1999/xlink"><path d="M788.1 526.7c-8.1 0-15.9 3.1-21.8 8.7-5.7 5.5-9 13.1-9 21v125.5c-0.1 5.5-2.4 10.8-6.3 14.6-4 3.8-9.3 5.9-14.8 5.8H606c-8-0.1-15.8 2.9-21.6 8.5-5.8 5.6-9.1 13.2-9.3 21.3 0 16.4 13.8 29.7 30.9 29.7h130.1c45.7-0.1 82.8-35.8 82.8-79.9V556.4c0-7.9-3.3-15.5-9-21-5.9-5.7-13.7-8.8-21.8-8.7z m-52-358.7H606c-8-0.2-15.8 2.9-21.6 8.5-5.8 5.6-9.1 13.2-9.3 21.3 0 16.4 13.8 29.8 30.9 29.8h130.1c11.5-0.2 20.9 8.9 21.1 20.4v125.5c0 10.6 5.9 20.5 15.5 25.7 9.6 5.3 21.2 5.3 30.8 0 9.4-5.1 15.3-15 15.4-25.7V247.9c0-44.1-37.1-79.8-82.8-79.9z m-502 235.2c8 0.1 15.8-2.9 21.6-8.5 5.8-5.6 9.1-13.2 9.2-21.3V248c0-11.2 9.6-20.4 21.2-20.5h130.1c16.7 0.3 30.5-13 30.9-29.7-0.3-16.7-14.1-30.1-30.9-29.8H286.1c-45.7 0.1-82.8 35.8-82.8 79.9v125.5c0 7.9 3.3 15.5 9 21 5.8 5.7 13.6 8.8 21.8 8.8z m213 328.9c-0.3-16.7-14.1-30.1-30.9-29.8H286.1c-5.5 0.1-10.8-2-14.8-5.8s-6.3-9.1-6.4-14.6V556.4c-0.1-8-3.5-15.7-9.2-21.3-5.8-5.6-13.5-8.7-21.6-8.5-8-0.1-15.8 2.9-21.6 8.5-5.8 5.6-9.1 13.2-9.2 21.3v125.5c0 44.1 37.1 79.9 82.8 79.9h130.1c8.1 0 15.9-3.1 21.8-8.7 5.8-5.5 9-13.1 9.1-21z m327.6-241.6h27.1v-51.1h-27.1v51.1z m-53 0h27.1v-51.1h-27.1v51.1z m232.1-39.9l-66.2-56.9c-9.6-7.8-23.3-7.9-33-0.1v45.8h-27.1v51.1h27.1V536c9.6 7.8 23.4 7.7 33-0.1l66.3-56.9c4.3-3.4 6.9-8.7 6.9-14.2s-2.5-10.8-6.9-14.2h-0.1z m-733.4 39.9h27.1v-51.1h-27.1v51.1z m53 0h27.1v-51.1h-27.1v51.1z m-105.8-96.8c-9.6-7.7-23.4-7.7-33 0.1l-66.3 56.9c-4.3 3.5-6.9 8.7-6.9 14.2s2.5 10.8 6.9 14.2l66.3 56.9c9.6 7.7 23.3 7.7 32.9 0v-45.5h27.1v-51.1h-27.1v-45.7z m317 351.7h52.9v-26.2h-53l0.1 26.2z m0-51.2h52.9V668h-53l0.1 26.2z m52.9 102h47.4c8.1 9.1 8.1 22.8-0.1 31.9l-59 63.9c-3.7 4.2-9.1 6.6-14.8 6.6-5.6 0-11-2.4-14.8-6.6l-59-63.9c-8.1-9.1-8.2-22.8-0.1-31.9h47.3v-26.1h53v26.1z m-82.6-420.8h112.4c15.5 0 28.1 12.6 28.1 28.1v112.4c0 15.5-12.6 28.1-28.1 28.1H454.9c-7.5 0-14.6-3-19.9-8.2-5.3-5.3-8.2-12.4-8.2-19.9V403.5c0-7.5 3-14.6 8.2-19.9 5.3-5.2 12.4-8.2 19.9-8.2z m0 0" p-id="4123"></path></svg>