<?xml version="1.0" standalone="no"?><!DOCTYPE svg PUBLIC "-//W3C//DTD SVG 1.1//EN" "http://www.w3.org/Graphics/SVG/1.1/DTD/svg11.dtd"><svg t="1723790012201" class="icon" viewBox="0 0 1024 1024" version="1.1" xmlns="http://www.w3.org/2000/svg" p-id="4309" width="50" height="50" xmlns:xlink="http://www.w3.org/1999/xlink"><path d="M601.10435946 665.82653545H377.04633172c-10.7682784 0-19.2012672-12.32513707-19.2012672-23.09341547s8.4329888-23.09341547 19.2012672-23.09341653H601.10435946c10.7682784 0 19.2012672 12.32513707 19.2012672 23.09341653s-8.4329888 23.09341547-19.2012672 23.09341547z m54.2306048-360.28323307H338.51405972c-10.7682784 0-19.2012672-8.4329888-19.2012672-19.20126613s8.4329888-28.2829472 19.2012672-28.2829472h316.82090454c10.7682784 0 19.2012672 17.5146688 19.2012672 28.2829472s-8.4329888 19.2012672-19.2012672 19.20126613z m0 146.0853152H338.51405972c-10.7682784 0-19.2012672-8.4329888-19.2012672-19.2012672s8.4329888-28.2829472 19.2012672-28.2829472h316.82090454c10.7682784 0 19.2012672 17.5146688 19.2012672 28.2829472s-8.4329888 19.2012672-19.2012672 19.2012672zM885.23121492 865.36402558c-10.7682784 0-25.68818133-8.4329888-25.68818133-19.2012672v-696.69461866c0-10.7682784 14.91990293-19.2012672 25.68818133-19.2012672s19.2012672 8.4329888 19.2012672 19.2012672v696.69461866c0 10.7682784-8.4329888 19.2012672-19.2012672 19.2012672z" p-id="4310"></path><path d="M544.66820266 747.30218132c-5.05979307 0-9.98984853-1.94607467-13.49278187-5.70848427-7.65455893-7.265344-7.65455893-19.59048213 0-27.24504107l71.4857984-71.87501333-71.4857984-72.2642272c-7.265344-7.65455893-7.265344-19.59048213 0-27.24504107 7.65455893-7.265344 29.9695456-7.265344 37.62410453 0l84.97858027 85.75701014c7.265344 7.65455893 7.265344 19.59048213 0 26.85582613l-84.97858027 85.3677952c-3.76241067 4.41110187-19.2012672 6.35717653-24.13132266 6.35717547z" p-id="4311"></path><path d="M736.03218132 865.36402558H272.99622292c-28.67216213 0-68.24234027-22.57446293-68.24234133-63.8312384V201.88240852c0-54.36034347 52.4142688-71.615536 63.18254827-71.615536h454.86244586c22.05550933 0 66.6854816 15.0496416 66.6854816 64.22045333v607.8238912c0 22.05550933-12.32513707 63.0528096-53.452176 63.05280853zM285.58083732 818.13928852h418.92493974c41.12703787 2.9839808 40.08913173-28.41268587 40.08913173-28.41268587V223.15948798s4.02188693-43.8515424-46.05709333-45.53813973c-107.81251947-0.38921493-347.69861867-0.38921493-392.45832854 0.12973867-64.60966827 0.77842987-56.4361568 51.24662507-56.4361568 51.24662506V780.90439892c0 0.12973867-6.74639147 37.2348896 35.9375072 37.2348896z" p-id="4312"></path></svg>