<?xml version="1.0" standalone="no"?><!DOCTYPE svg PUBLIC "-//W3C//DTD SVG 1.1//EN" "http://www.w3.org/Graphics/SVG/1.1/DTD/svg11.dtd"><svg t="1723790017878" class="icon" viewBox="0 0 1024 1024" version="1.1" xmlns="http://www.w3.org/2000/svg" p-id="4498" width="50" height="50" xmlns:xlink="http://www.w3.org/1999/xlink"><path d="M801.4 432.9h-580c-49.6 0-90-40.4-90-90v-120c0-49.6 40.4-90 90-90h580c49.6 0 90 40.4 90 90v120c0 49.7-40.4 90-90 90z m-580-240c-16.5 0-30 13.5-30 30v120c0 16.5 13.5 30 30 30h580c16.5 0 30-13.5 30-30v-120c0-16.5-13.5-30-30-30h-580z m600 342.5c-16.6 0-30-13.4-30-30v-95c0-16.6 13.4-30 30-30s30 13.4 30 30v95c0 16.6-13.4 30-30 30zM484.7 887.8H261.4c-49.6 0-90-40.4-90-90V409c0-16.6 13.4-30 30-30s30 13.4 30 30v388.8c0 16.5 13.5 30 30 30h223.3c16.6 0 30 13.4 30 30s-13.4 30-30 30z m216.6 15.4c-101.8 0-184.6-82.8-184.6-184.6S599.5 534 701.3 534 886 616.8 886 718.6s-82.9 184.6-184.7 184.6z m0-319.2c-74.2 0-134.6 60.4-134.6 134.6s60.4 134.6 134.6 134.6S836 792.8 836 718.6 775.6 584 701.3 584z m-23.1 226.4c-6.1 0-12.1-2.2-16.9-6.6l-56.4-52c-10.2-9.4-10.8-25.2-1.4-35.3 9.4-10.2 25.2-10.8 35.3-1.4l56.4 52c10.2 9.4 10.8 25.2 1.4 35.3-4.9 5.3-11.7 8-18.4 8z m3-1c-6.1 0-12.2-2.2-17.1-6.7-10.1-9.4-10.6-25.2-1.2-35.3l106-113.5c9.4-10.1 25.2-10.6 35.3-1.2 10.1 9.4 10.6 25.2 1.2 35.3l-106 113.5c-4.9 5.2-11.5 7.9-18.2 7.9z" fill="currentColor" p-id="4499"></path></svg>