<?xml version="1.0" standalone="no"?><!DOCTYPE svg PUBLIC "-//W3C//DTD SVG 1.1//EN" "http://www.w3.org/Graphics/SVG/1.1/DTD/svg11.dtd"><svg t="1723790060435" class="icon" viewBox="0 0 1024 1024" version="1.1" xmlns="http://www.w3.org/2000/svg" p-id="5836" width="50" height="50" xmlns:xlink="http://www.w3.org/1999/xlink"><path d="M768.1 795.1H255.9c-0.3 0-2.7-0.2-2.7-0.1 2.3 0.4 2.8 0.4 1.5 0.1-0.7-0.1-1.3-0.3-1.9-0.5-0.5-0.1-2.3-0.5-2.5-0.8 0 0 3.8 2.1 0.8 0.2-0.7-0.4-1.5-0.9-2.2-1.3-3.1-1.8 0.5 0.5 0.6 0.5-0.8-0.1-4.7-5-3-2.8 1.5 2-0.1-0.2-0.4-0.8-0.3-0.5-2.2-4.4-1.1-1.9 1 2.4-0.1-0.3-0.2-0.9-0.2-0.8-0.3-1.8-0.6-2.6-0.9-2.2 0 4.2 0.1 0.1v-1.4-0.3-5.7-80.8-132.3-130.2-74.5-3.5l-18 18H728.4c23 0 46.2 0.9 69.2 0h1l-18-18v428.7c0 3.8 0.2-0.8 0.2-0.8 0.1 0.3-0.5 2.1-0.6 2.6-0.1 0.2-0.5 2.2-0.8 2.5 1.2-1 1.4-2.5 0.2-0.8-0.4 0.7-0.9 1.5-1.3 2.2-1.9 3.4 2.5-2.3-0.3 0.4-0.6 0.6-1.3 1.2-1.8 1.8-1.5 1.6 0.1 0.8 0.7-0.4-0.4 1-3.1 1.7-3.9 2.3-1.8 1.4 3-0.6 0.7-0.3-0.8 0.1-1.7 0.5-2.5 0.8-0.6 0.2-3.5 0.7-0.9 0.3 2.5-0.3-1.9 0.2-2.2 0.2-9.4 0.2-18.4 8.1-18 18 0.4 9.6 7.9 18.2 18 18 27.6-0.6 47.9-22.7 48-49.9v-21.7-97.1-130.3-117.3c0-19.4 0.5-38.9 0-58.3v-0.8c0-9.7-8.2-18-18-18H296c-23.1 0-46.2-0.5-69.2 0h-1c-9.7 0-18 8.2-18 18v411.4c0 5.3-0.1 10.6 0 15.9 0.5 27.4 22.5 47.9 49.6 48 20.1 0.1 40.3 0 60.4 0h450.4c9.4 0 18.4-8.3 18-18-0.5-9.7-8-17.9-18.1-17.9z" fill="currentColor" p-id="5837"></path><path d="M813.7 346.6c-20.1-42.3-40.3-84.6-60.4-126.9-2.8-6-5.7-12-8.5-17.9-2.7-5.6-9.6-8.9-15.5-8.9H348.5c-17.6 0-35.2-0.5-52.7 0h-0.8c-5.9 0-12.9 3.3-15.5 8.9-20.1 42.3-40.3 84.6-60.4 126.9-2.8 6-5.7 12-8.5 17.9-4 8.5-2.6 19.8 6.5 24.6 8 4.2 20.3 2.6 24.6-6.5 20.1-42.3 40.3-84.6 60.4-126.9 2.8-6 5.7-12 8.5-17.9-5.2 3-10.4 5.9-15.5 8.9h380.8c17.5 0 35.3 0.8 52.7 0h0.8c-5.2-3-10.4-5.9-15.5-8.9 20.1 42.3 40.3 84.6 60.4 126.9 2.8 6 5.7 12 8.5 17.9 4.1 8.5 16.9 11.4 24.6 6.5 8.6-5.6 10.6-15.4 6.3-24.6zM328.4 476.2h155.9c9.4 0 18.4-8.3 18-18-0.4-9.8-7.9-18-18-18H328.4c-9.4 0-18.4 8.3-18 18 0.4 9.8 7.9 18 18 18zM539.7 729.1h155.9c9.4 0 18.4-8.3 18-18-0.4-9.8-7.9-18-18-18H539.7c-9.4 0-18.4 8.3-18 18 0.5 9.8 8 18 18 18z" fill="currentColor" p-id="5838"></path><path d="M530 355.7V228.9v-18c0-9.4-8.3-18.4-18-18-9.8 0.4-18 7.9-18 18v144.8c0 9.4 8.3 18.4 18 18 9.8-0.4 18-7.9 18-18z" fill="currentColor" p-id="5839"></path></svg>