<svg xmlns="http://www.w3.org/2000/svg" viewBox="0 0 25 25"><path class="cls-1" d="M24.62,18a1.78,1.78,0,0,0,.14-2l-.29-.53a1.74,1.74,0,0,0-1.73-.87l-.56.07a.77.77,0,0,1-.82-.48l-.22-.67a1.85,1.85,0,0,0-1.63-1.23h-.57a1.86,1.86,0,0,0-1.63,1.24l-.2.58a.82.82,0,0,1-.85.53l-.52-.06a1.72,1.72,0,0,0-1.75.88l-.3.53a1.81,1.81,0,0,0,.14,2l.34.43a.83.83,0,0,1,0,1l-.33.43a1.8,1.8,0,0,0-.14,2l.29.5a1.74,1.74,0,0,0,1.79.86l.5-.08a.81.81,0,0,1,.88.52l.16.34a1.66,1.66,0,0,0,1.62,1h.6a1.65,1.65,0,0,0,1.61-1l.19-.43a.76.76,0,0,1,.84-.47l.53.09a1.72,1.72,0,0,0,1.78-.86l.28-.49a1.78,1.78,0,0,0-.14-2l-.32-.42a.81.81,0,0,1,0-1ZM23.49,21.1l-.26.45a.69.69,0,0,1-.72.35L22,21.81a1.56,1.56,0,0,0-1.69,1l-.18.4a.66.66,0,0,1-.66.36H19a.68.68,0,0,1-.68-.4l-.15-.29a1.57,1.57,0,0,0-1.46-1l-.25,0-.46.08a.7.7,0,0,1-.73-.35L15,21.11A.71.71,0,0,1,15,20.3l.3-.39a1.64,1.64,0,0,0,0-2L15,17.53a.74.74,0,0,1,0-.82l.27-.48a.71.71,0,0,1,.72-.36l.48.05a1.6,1.6,0,0,0,1.68-1l.19-.52a.8.8,0,0,1,.66-.54h.52a.78.78,0,0,1,.65.52l.2.6A1.57,1.57,0,0,0,22,16l.5-.06a.68.68,0,0,1,.7.36l.27.47h0a.75.75,0,0,1-.05.81l-.3.38a1.64,1.64,0,0,0,0,2l.3.38A.75.75,0,0,1,23.49,21.1Z"/><path class="cls-1" d="M19.2,16.52a2.31,2.31,0,1,0,2.26,2.31A2.29,2.29,0,0,0,19.2,16.52Zm0,3.67a1.37,1.37,0,1,1,1.34-1.36A1.35,1.35,0,0,1,19.2,20.19Z"/><path class="cls-1" d="M4.84,8.35a.78.78,0,0,0-.72.83h0a.88.88,0,0,0,.21.58.69.69,0,0,0,.51.24h12.4A.78.78,0,0,0,18,9.18h0a.77.77,0,0,0-.72-.82H4.84Z"/><path class="cls-1" d="M11,21.76H2c-.19,0-.17,0-.17-.18V3.4c0-.19,0-.17.17-.17h4.4v1A.72.72,0,0,0,7.14,5h7.8a.72.72,0,0,0,.73-.71v-1h4.4c.2,0,.18,0,.18.17v7.14c0,.39.5.71.91.71s.92-.32.92-.71h0V2.14a.72.72,0,0,0-.72-.72h-5.7V.71A.71.71,0,0,0,14.94,0H7.14a.71.71,0,0,0-.72.71h0v.72H.72a.7.7,0,0,0-.51.2A.75.75,0,0,0,0,2.14V22.85a.71.71,0,0,0,.72.71H11c.4,0,.72-.51.73-.91s-.33-.89-.73-.89Zm-3.12-20A.33.33,0,0,1,8,1.53a.36.36,0,0,1,.25-.11h5.62a.36.36,0,0,1,.36.36V3.21a.36.36,0,0,1-.11.25.39.39,0,0,1-.25.1H8.23a.36.36,0,0,1-.36-.35Z"/><path class="cls-1" d="M9.32,18.55a.79.79,0,0,0,.72-.83.78.78,0,0,0-.72-.82H4.85a.78.78,0,0,0-.73.82.89.89,0,0,0,.21.59.71.71,0,0,0,.52.24Z"/><path class="cls-1" d="M11,12.46H4.84a.78.78,0,0,0-.72.83h0a.78.78,0,0,0,.72.82H11a.79.79,0,0,0,.73-.82h0a.79.79,0,0,0-.73-.83Z"/></svg>