<?xml version="1.0" standalone="no"?><!DOCTYPE svg PUBLIC "-//W3C//DTD SVG 1.1//EN" "http://www.w3.org/Graphics/SVG/1.1/DTD/svg11.dtd"><svg t="1723789944806" class="icon" viewBox="0 0 1024 1024" version="1.1" xmlns="http://www.w3.org/2000/svg" p-id="2791" width="50" height="50" xmlns:xlink="http://www.w3.org/1999/xlink"><path d="M725.636 494.346c-1.4-19.888-16.963-34.888-36.205-34.888h-354.87c-19.086 0-35.22 16.342-35.22 35.684 0 19.34 16.134 35.678 35.22 35.678h355.873c19.098 0 35.231-16.338 35.231-35.678l-0.03-0.796zM430.34 212.513h165.33c25.112 0 46.319-0.652 46.319-29.406 0-29.247-21.23-41.786-47.33-41.786H430.34c-26.097 0-47.323 12.54-47.323 41.786 0.001 29.25 21.226 29.406 47.323 29.406z m260.094 114.198H334.562c-19.087 0-35.221 16.334-35.221 35.678 0 19.346 16.134 35.687 35.22 35.687h355.873c19.098 0 35.231-16.34 35.231-35.687 0.001-19.344-16.129-35.678-35.231-35.678z m-1.004 276.728H334.562c-19.087 0-35.221 16.34-35.221 35.683 0 19.336 16.134 35.677 35.22 35.677h355.873c19.098 0 35.231-16.341 35.231-35.677l-0.03-0.798c-1.4-19.886-16.962-34.885-36.205-34.885z m155.747-418.513c-14.965-16.242-39.303-31.376-72.074-31.376H725.72c-18.88 0-39.262 12.477-39.262 32.615 0 19.044 19.451 18.917 39.262 18.917h47.383c22.08 0 36.35 14.452 36.35 36.82v552.432c0 22.372-14.27 36.819-36.35 36.819H262.987c-22.862 0-48.438-15.74-48.438-36.819V241.9c0-22.367 14.264-36.82 36.344-36.82h59.48c17.45 0 29.176 3.65 29.176-18.916 0-20.42-10.906-32.615-29.175-32.615h-59.48c-66.245 0-86.979 21.628-86.979 89.366v546.312c0 68.198 24.69 93.451 92.019 93.451H768.06c71.479 0 92.026-21.056 92.026-93.451V242.92c-0.005-26.236-1.343-43.28-14.909-57.994z m0 0" p-id="2792"></path></svg>