<?xml version="1.0" standalone="no"?><!DOCTYPE svg PUBLIC "-//W3C//DTD SVG 1.1//EN" "http://www.w3.org/Graphics/SVG/1.1/DTD/svg11.dtd"><svg t="1723790049760" class="icon" viewBox="0 0 1024 1024" version="1.1" xmlns="http://www.w3.org/2000/svg" p-id="5456" width="50" height="50" xmlns:xlink="http://www.w3.org/1999/xlink"><path d="M543.288889 277.921185l80.099555-50.517333a31.288889 31.288889 0 1 1 33.412741 52.944592L529.066667 360.827259a31.288889 31.288889 0 0 1-0.872297 0.568889l-16.687407 10.505482-16.459852-10.960593a31.288889 31.288889 0 0 1-0.758518-0.493037L373.57037 279.893333a31.288889 31.288889 0 0 1 34.664297-52.03437l72.51437 48.279704V46.117926a31.288889 31.288889 0 0 1 62.577778 0v231.803259z m320.284444-7.509333l-146.925037-84.878222a31.288889 31.288889 0 0 1 31.288889-54.196149l170.514963 98.49363c19.342222 11.188148 31.288889 31.857778 31.288889 54.234074v433.114074a62.577778 62.577778 0 0 1-31.288889 54.234074l-375.163259 216.557037a62.577778 62.577778 0 0 1-62.577778 0l-375.163259-216.519111a62.577778 62.577778 0 0 1-31.288889-54.234074V284.065185c0-22.376296 11.946667-43.008 31.288889-54.196148l176.052148-101.679407A31.288889 31.288889 0 1 1 312.888889 182.423704L159.857778 270.715259 512 473.694815l351.573333-203.282963V270.411852z m23.589926 58.633481l-343.87437 198.731852v387.982222l343.87437-198.542222V329.045333z m-750.326518 0.606815v387.565037l343.87437 198.542222v-387.982222L136.836741 329.728v-0.075852z" fill="currentColor" p-id="5457"></path></svg>