<?xml version="1.0" standalone="no"?><!DOCTYPE svg PUBLIC "-//W3C//DTD SVG 1.1//EN" "http://www.w3.org/Graphics/SVG/1.1/DTD/svg11.dtd"><svg t="1723789999508" class="icon" viewBox="0 0 1025 1024" version="1.1" xmlns="http://www.w3.org/2000/svg" p-id="3934" width="50.048828125" height="50" xmlns:xlink="http://www.w3.org/1999/xlink"><path d="M547.2 688zM441.6 166.4l-41.6 147.2-41.6-22.4 41.6-147.2-230.4-64-169.6 521.6 454.4 140.8 9.6-9.6c19.2-19.2 41.6-32 67.2-38.4l19.2-6.4 147.2-438.4-256-83.2z m-153.6 432l25.6-67.2-96-35.2 28.8-76.8 96 35.2 25.6-67.2 92.8 153.6-172.8 57.6zM9.6 678.4c-3.2 12.8 0 22.4 12.8 25.6l387.2 124.8h3.2c0-16 3.2-22.4 9.6-35.2l-384-124.8c-12.8-3.2-22.4-3.2-28.8 9.6zM566.4 732.8c-57.6 0-105.6 48-105.6 105.6 0 57.6 48 105.6 105.6 105.6 57.6 0 105.6-48 105.6-105.6 0-60.8-48-105.6-105.6-105.6z m0 166.4c-35.2 0-64-28.8-64-64s28.8-64 64-64 64 28.8 64 64-28.8 64-64 64zM1024 265.6c-3.2-12.8-12.8-16-25.6-12.8l-268.8 44.8-6.4 25.6-124.8 371.2c16 3.2 22.4 6.4 35.2 12.8l124.8-371.2 252.8-48c12.8-3.2 16-9.6 12.8-22.4z" fill="" p-id="3935"></path><path d="M566.4 835.2m-22.4 0a22.4 22.4 0 1 0 44.8 0 22.4 22.4 0 1 0-44.8 0Z" fill="" p-id="3936"></path></svg>