<?xml version="1.0" standalone="no"?><!DOCTYPE svg PUBLIC "-//W3C//DTD SVG 1.1//EN" "http://www.w3.org/Graphics/SVG/1.1/DTD/svg11.dtd"><svg t="1723789964327" class="icon" viewBox="0 0 1109 1024" version="1.1" xmlns="http://www.w3.org/2000/svg" p-id="2978" width="54.150390625" height="50" xmlns:xlink="http://www.w3.org/1999/xlink"><path d="M347.733333 185.6l-29.866666-29.866667-98.133334 98.133334-66.133333-66.133334-29.866667 29.866667 96 96 29.866667-29.866667z" p-id="2979"></path><path d="M1024 407.466667V405.333333h-2.133333l-96-106.666666H746.666667v-21.333334c0-59.733333-46.933333-106.666667-106.666667-106.666666h-179.2C433.066667 72.533333 343.466667 0 234.666667 0 104.533333 0 0 104.533333 0 234.666667c0 83.2 42.666667 155.733333 106.666667 196.266666V768c0 59.733333 46.933333 106.666667 106.666666 106.666667h21.333334c0 83.2 66.133333 149.333333 149.333333 149.333333s149.333333-66.133333 149.333333-149.333333h213.333334c0 83.2 66.133333 149.333333 149.333333 149.333333s149.333333-66.133333 149.333333-149.333333h64V503.466667l-85.333333-96z m42.666667 168.533333h-192c-36.266667 0-64-27.733333-64-64s27.733333-64 64-64h128l64 72.533333V576zM42.666667 234.666667c0-106.666667 85.333333-192 192-192s192 85.333333 192 192-85.333333 192-192 192-192-85.333333-192-192z m341.333333 746.666666c-59.733333 0-106.666667-46.933333-106.666667-106.666666s46.933333-106.666667 106.666667-106.666667 106.666667 46.933333 106.666667 106.666667-46.933333 106.666667-106.666667 106.666666z m142.933333-149.333333c-17.066667-61.866667-74.666667-106.666667-142.933333-106.666667s-125.866667 44.8-142.933333 106.666667H213.333333c-36.266667 0-64-27.733333-64-64V452.266667c25.6 10.666667 55.466667 17.066667 85.333334 17.066666 130.133333 0 234.666667-104.533333 234.666666-234.666666 0-6.4 0-14.933333-2.133333-21.333334H640c36.266667 0 64 27.733333 64 64v554.666667h-177.066667zM896 981.333333c-59.733333 0-106.666667-46.933333-106.666667-106.666666s46.933333-106.666667 106.666667-106.666667 106.666667 46.933333 106.666667 106.666667-46.933333 106.666667-106.666667 106.666666z m142.933333-149.333333c-17.066667-61.866667-74.666667-106.666667-142.933333-106.666667s-125.866667 44.8-142.933333 106.666667H746.666667V341.333333h162.133333l55.466667 64H874.666667c-59.733333 0-106.666667 46.933333-106.666667 106.666667s46.933333 106.666667 106.666667 106.666667h192v213.333333h-27.733334z" p-id="2980"></path></svg>