<?xml version="1.0" standalone="no"?><!DOCTYPE svg PUBLIC "-//W3C//DTD SVG 1.1//EN" "http://www.w3.org/Graphics/SVG/1.1/DTD/svg11.dtd"><svg t="1723790065695" class="icon" viewBox="0 0 1024 1024" version="1.1" xmlns="http://www.w3.org/2000/svg" p-id="6029" width="50" height="50" xmlns:xlink="http://www.w3.org/1999/xlink"><path d="M870.4 108.8c47.2 0 85.9 36.6 89.4 82.9l0.2 6.7v179.2h-44.8v448c0 47.2-36.6 85.9-82.9 89.4l-6.7 0.2H198.4c-47.2 0-85.9-36.6-89.4-82.9l-0.2-6.7v-448H64V198.4c0-47.2 36.6-85.9 82.9-89.4l6.7-0.2h716.8z m-44.8 268.8H198.4v448h627.2v-448z m-224 179.2c24.7 0 44.8 20.1 44.8 44.8 0 24.7-20.1 44.8-44.8 44.8H422.4c-24.7 0-44.8-20.1-44.8-44.8 0-24.7 20.1-44.8 44.8-44.8h179.2z m268.8-358.4H153.6V288h716.8v-89.6z" p-id="6030"></path></svg>