<?xml version="1.0" standalone="no"?><!DOCTYPE svg PUBLIC "-//W3C//DTD SVG 1.1//EN" "http://www.w3.org/Graphics/SVG/1.1/DTD/svg11.dtd"><svg t="1723789912517" class="icon" viewBox="0 0 1024 1024" version="1.1" xmlns="http://www.w3.org/2000/svg" p-id="2029" width="50" height="50" xmlns:xlink="http://www.w3.org/1999/xlink"><path d="M536.576 34.56l460.8 384A38.4 38.4 0 0 1 972.8 486.4h-102.4a38.4 38.4 0 0 1-76.8 0V448a38.4 38.4 0 0 1 38.4-38.4h34.752L512 113.92 157.184 409.6H192a38.4 38.4 0 0 1 37.888 32.192L230.4 448l-0.064 473.6H576a38.4 38.4 0 0 1 37.888 32.192L614.4 960a38.4 38.4 0 0 1-38.4 38.4H192a38.4 38.4 0 0 1-38.4-38.4l-0.064-473.6H51.2a38.4 38.4 0 0 1-28.992-63.616l4.416-4.288 460.8-384a38.4 38.4 0 0 1 49.152 0z m237.568 579.2a38.4 38.4 0 0 1 54.272-1.792l170.624 160 3.2 3.328 1.408 1.792a38.272 38.272 0 0 1 0 45.888l-2.688 3.136-172.544 161.92a38.4 38.4 0 1 1-52.544-56.064l99.776-93.568H460.8a38.4 38.4 0 0 1 0-76.8h414.848l-99.776-93.568a38.4 38.4 0 0 1-6.016-48.832l4.288-5.44zM684.8 537.6a38.4 38.4 0 0 1 0 76.8H352a38.4 38.4 0 1 1 0-76.8h332.8z m0-128a38.4 38.4 0 0 1 0 76.8H352a38.4 38.4 0 1 1 0-76.8h332.8z" fill="currentColor" p-id="2030"></path></svg>