<?xml version="1.0" standalone="no"?><!DOCTYPE svg PUBLIC "-//W3C//DTD SVG 1.1//EN" "http://www.w3.org/Graphics/SVG/1.1/DTD/svg11.dtd"><svg t="1752890725959" class="icon" viewBox="0 0 1024 1024" version="1.1" xmlns="http://www.w3.org/2000/svg" p-id="6526" xmlns:xlink="http://www.w3.org/1999/xlink" width="32" height="32"><path d="M283.4 101.5l128.1 320.3h-53.1l-32.8-85.9H183.4l-32.8 85.9H97.5l128.1-320.3h57.8z m-28.1 42.2h-1.6c-3.1 9.4-6.2 18.8-9.4 28.1-1 2.1-17.2 43.8-48.4 125h117.2c-31.2-81.2-47.4-122.9-48.4-125 0-1-0.5-3.1-1.6-6.2-5.2-12.5-7.8-19.8-7.8-21.9zM691.1 926.8H545.8V606.5h137.5c67.7 2.1 103.6 27.6 107.8 76.6-1 40.6-22.9 65.6-65.6 75v1.6c49 8.3 75.5 33.9 79.7 76.6-0.1 60.3-38.1 90.5-114.1 90.5zM673.9 644h-79.7v98.4h79.7c42.7-1 64.6-18.2 65.6-51.6-1-31.2-22.9-46.8-65.6-46.8z m6.2 137.5h-85.9v109.4h89.1c45.8 0 68.8-19.3 68.8-57.8-2.2-33.4-26.1-50.6-72-51.6zM471.9 926.5h-41.5c-8.4 0-15.1-6.8-15.1-15.1v-41.5c0-8.4 6.8-15.1 15.1-15.1h41.5c8.4 0 15.1 6.8 15.1 15.1v41.5c0.1 8.3-6.7 15.1-15.1 15.1zM913.9 926.5h-41.5c-8.4 0-15.1-6.8-15.1-15.1v-41.5c0-8.4 6.8-15.1 15.1-15.1h41.5c8.4 0 15.1 6.8 15.1 15.1v41.5c0 8.3-6.8 15.1-15.1 15.1zM358.1 926.5h-41.5c-8.4 0-15.1-6.8-15.1-15.1v-41.5c0-8.4 6.8-15.1 15.1-15.1h41.5c8.4 0 15.1 6.8 15.1 15.1v41.5c0 8.3-6.8 15.1-15.1 15.1zM525.3 227.6s81.6 22 83.1 116.4l-64.7-0.4 105 150L757 347.1l-64-0.4s-0.4-154.3-167.7-119.1z" p-id="6527"></path></svg>