<?xml version="1.0" standalone="no"?><!DOCTYPE svg PUBLIC "-//W3C//DTD SVG 1.1//EN" "http://www.w3.org/Graphics/SVG/1.1/DTD/svg11.dtd"><svg t="1751108898658" class="icon" viewBox="0 0 1024 1024" version="1.1" xmlns="http://www.w3.org/2000/svg" p-id="7300" width="32" height="32" xmlns:xlink="http://www.w3.org/1999/xlink"><path d="M725.12 796.032h-544c-23.68 0-45.12-9.28-61.632-24.448l154.176-192.32a43.52 43.52 0 0 1 32.704-16.704 42.88 42.88 0 0 1 33.6 14.464l13.568 15.168c17.856 19.968 43.008 30.208 69.12 28.352a86.08 86.08 0 0 0 64.832-37.696l77.696-113.152a43.456 43.456 0 0 1 35.776-19.392h0.512a42.88 42.88 0 0 1 35.648 19.008l80.512 114.368a20.608 20.608 0 0 0 30.144 4.352 23.04 23.04 0 0 0 4.096-31.36l-80.384-114.176a85.44 85.44 0 0 0-70.016-37.248h-0.448c-28.224 0.256-53.76 14.08-70.144 38.144L452.992 556.416a43.392 43.392 0 0 1-68.544 4.8l-13.504-14.912a86.208 86.208 0 0 0-65.792-28.736 85.504 85.504 0 0 0-64.128 32.64l-147.008 183.36a103.616 103.616 0 0 1-6.592-36.416V313.28c0-54.592 42.048-98.944 93.632-98.944h601.28c51.776 0 93.632 44.352 93.632 98.944v190.336c0 12.48 9.472 22.528 21.12 22.528a22.016 22.016 0 0 0 21.632-22.528V313.28c0-79.552-61.12-144-136.512-144H181.12c-75.264 0-136.384 64.448-136.384 144v383.872c0 79.424 61.12 143.936 136.384 143.936h544c11.904 0 21.376-10.048 21.376-22.656a21.76 21.76 0 0 0-21.376-22.4z" fill="" p-id="7301"></path><path d="M246.464 271.168c-36.8 0-66.752 30.016-66.752 66.816a66.88 66.88 0 1 0 66.752-66.816z m0 99.648a32.896 32.896 0 1 1 0-65.856 32.896 32.896 0 0 1 0 65.856zM884.48 659.392v182.144c0 13.376-10.624 24.32-23.744 24.32a24.192 24.192 0 0 1-23.616-24.512v-181.952l-51.264 79.424a23.232 23.232 0 0 1-32.128 7.36c-0.256-0.192-0.512-0.32-0.64-0.576a24.64 24.64 0 0 1-6.656-33.792l94.4-146.176a23.488 23.488 0 0 1 19.776-11.392 23.68 23.68 0 0 1 20.224 11.392l94.4 146.176a24.768 24.768 0 0 1-6.656 33.792 23.36 23.36 0 0 1-32.768-6.592l-51.328-79.616z" fill="" p-id="7302"></path></svg>