<?xml version="1.0" standalone="no"?><!DOCTYPE svg PUBLIC "-//W3C//DTD SVG 1.1//EN" "http://www.w3.org/Graphics/SVG/1.1/DTD/svg11.dtd"><svg t="1723790041606" class="icon" viewBox="0 0 1024 1024" version="1.1" xmlns="http://www.w3.org/2000/svg" p-id="5268" width="50" height="50" xmlns:xlink="http://www.w3.org/1999/xlink"><path d="M750.9237 107.457504c45.972709 0 83.203161 38.581528 83.203161 86.165413v722.934029H137.0728V193.615692c0-47.583885 37.230452-86.165413 83.210386-86.165413h530.640514zM174.050377 695.132209v183.110534h623.098907V695.79691h-0.339575l-4.248304 0.252875H182.113483a35.929951 35.929951 0 0 1-8.055881-0.874226v-0.04335z m0-267.476921v232.29837c1.257151-0.281775 2.528752-0.50575 3.807578-0.6647l4.248303-0.252875h52.511339V552.055429a46.247259 46.247259 0 0 1 46.225584-46.225584h130.050095a46.240034 46.240034 0 0 1 46.225584 46.225584V658.992733h55.842066V552.055429a46.247259 46.247259 0 0 1 46.225584-46.225584h129.977845a46.247259 46.247259 0 0 1 46.225584 46.225584V658.992733l57.207592 0.04335c1.553376 0 3.106752 0.1156 4.573428 0.296225V428.291089h-0.325125l-4.248303 0.252875H182.113483a35.229126 35.229126 0 0 1-8.063106-0.888676zM689.17158 542.814648H559.150385c-5.108079 0-9.240782 4.132703-9.240782 9.240781v106.980654h148.481084V552.055429a9.248007 9.248007 0 0 0-9.240782-9.240781h0.021675z m-278.299979 0H280.850406c-5.108079 0-9.240782 4.132703-9.240782 9.240781v106.980654h148.509984V552.055429a9.248007 9.248007 0 0 0-9.248007-9.240781z m340.052099-397.050166H220.283186c-25.525944 0-46.225584 21.407691-46.225584 47.80786v198.92607a35.908276 35.908276 0 0 1 3.807578-0.67915l4.248303-0.252875h52.511339V284.578508a46.240034 46.240034 0 0 1 46.225584-46.211133h130.050095a46.232809 46.232809 0 0 1 46.225584 46.211133v106.995104h55.842066V284.578508a46.240034 46.240034 0 0 1 46.225584-46.211133h129.977845a46.240034 46.240034 0 0 1 46.225584 46.211133v106.995104h57.207592c1.553376 0 3.106752 0.1156 4.573428 0.296225v-198.254145c0-26.400169-20.69964-47.80786-46.211134-47.80786l-0.04335-0.04335z m-61.75212 129.587695H559.150385c-5.108079 0-9.240782 4.132703-9.240782 9.226331v106.995104h148.481084V284.578508a9.248007 9.248007 0 0 0-9.240782-9.226331h0.021675z m-278.299979 0H280.850406a9.197432 9.197432 0 0 0-9.240782 9.226331v106.995104h148.509984V284.578508a9.248007 9.248007 0 0 0-9.248007-9.226331z m0 0" fill="currentColor" p-id="5269"></path><path d="M841.344641 923.774727H129.847795V193.615692c0-51.492613 40.56118-93.390418 90.435391-93.390419h530.640514c49.866987 0 90.428166 41.897806 90.428166 93.390419v730.159035z m-697.046835-14.450011h682.596825v-715.709024c0-43.516207-34.08035-78.940408-75.978156-78.940408H220.283186c-41.897806 0-75.985381 35.416976-75.98538 78.940408v715.709024z m660.076483-23.856967H166.825372V695.132209h7.239455l1.567827-7.01548c2.073577 0.4624 4.190503 0.708051 6.292979 0.708051h610.635772l4.587879-0.252876h7.225005v196.895845z m-623.098906-14.450011h608.648896V703.26034l-607.810796 0.01445c-0.238425-0.195075-0.5491 0-0.830875-0.01445v167.757398z m-14.450011-201.989473v-250.418683l8.821732 2.001326c2.080802 0.4624 4.219403 0.708051 6.365229 0.708051h610.592423l4.573428-0.252876h7.225005v246.495506l-8.142581-1.054851a29.037296 29.037296 0 0 0-3.655852-0.238425l-64.432598-0.04335V552.055429a39.043929 39.043929 0 0 0-39.000578-39.000578h-129.977845a39.043929 39.043929 0 0 0-39.000579 39.000578V666.217738H449.90108V552.055429a39.043929 39.043929 0 0 0-39.000579-39.000578h-130.050095a39.043929 39.043929 0 0 0-39.000579 39.000578v114.205659l-63.558371 0.238425c-0.578 0.0867-1.611176 0.267325-2.615452 0.491301l-8.850632 2.037451z m14.450011-233.259296v216.085458l0.4046-0.0289 45.712609-0.01445V552.055429c0-29.478022 23.979793-53.450589 53.450589-53.450589h130.050095c29.478022 0 53.450589 23.972568 53.450589 53.450589V651.767727h41.392055V552.055429c0-29.478022 23.972568-53.450589 53.45059-53.450589h129.977845c29.463572 0 53.450589 23.972568 53.450589 53.450589v99.726748l47.33101 0.0289V435.754519l-607.839696 0.01445h-0.830875z m524.333084 230.492119H542.677372V552.055429a16.487462 16.487462 0 0 1 16.465788-16.465787h130.021195a16.487462 16.487462 0 0 1 16.436887 16.465787v114.205659z m-148.481084-14.450011h134.031073V552.055429a2.023001 2.023001 0 0 0-2.015776-2.015776H559.150385a2.023001 2.023001 0 0 0-2.015777 2.015776v99.755648z m-129.789995 14.450011H264.377394V552.055429a16.480237 16.480237 0 0 1 16.465787-16.465787h130.021195a16.487462 16.487462 0 0 1 16.465787 16.465787v114.205659z m-148.509984-14.450011h134.059973V552.055429a2.023001 2.023001 0 0 0-2.015776-2.015776H280.850406a2.023001 2.023001 0 0 0-2.015777 2.015776v99.755648zM166.825372 401.580244v-208.007902c0-30.337797 23.972568-55.032865 53.450589-55.032866h534.029041l0.144501 0.151726c27.852395 1.864051 49.953687 25.778819 49.953686 54.92449v206.418401l-8.113681-1.004276a29.319071 29.319071 0 0 0-3.684752-0.238425h-64.432598V284.578508a39.043929 39.043929 0 0 0-39.000578-38.986128h-129.977845a39.043929 39.043929 0 0 0-39.000579 38.986128v114.220109H449.90108V284.578508a39.043929 39.043929 0 0 0-39.000579-38.986128h-130.050095a39.043929 39.043929 0 0 0-39.000579 38.986128v114.220109l-63.543921 0.238425a30.272772 30.272772 0 0 0-2.629902 0.505751l-8.850632 2.037451z m53.457814-248.590757c-21.508841 0-39.000579 18.207013-39.000578 40.582855V384.370282l0.39015-0.01445 45.727059-0.01445V284.578508c0-29.463572 23.979793-53.436139 53.450589-53.436139h130.050095c29.478022 0 53.450589 23.972568 53.450589 53.436139v99.770099h41.392055V284.578508c0-29.463572 23.972568-53.436139 53.45059-53.436139h129.977845c29.463572 0 53.450589 23.972568 53.450589 53.436139v99.770099h47.33101V193.615692c0-22.383066-17.484513-40.582855-38.986129-40.582855l-530.683864-0.04335z m485.325281 245.80913H542.677372V284.578508a16.473012 16.473012 0 0 1 16.465788-16.451337h130.021195a16.480237 16.480237 0 0 1 16.436887 16.451337v114.220109z m-148.481084-14.45001h134.031073V284.578508a2.023001 2.023001 0 0 0-2.015776-2.001326H559.150385a2.015776 2.015776 0 0 0-2.015777 2.001326v99.770099z m-129.789995 14.45001H264.377394V284.578508c0-4.385578 1.705101-8.525506 4.826303-11.639483a16.306837 16.306837 0 0 1 11.639484-4.811854h130.021195a16.473012 16.473012 0 0 1 16.465787 16.451337v114.220109z m-148.509984-14.45001h134.059973V284.578508a2.023001 2.023001 0 0 0-2.015776-2.001326H280.850406c-0.541875 0-1.047626 0.195075-1.423326 0.578s-0.59245 0.888676-0.592451 1.423326v99.770099z" fill="currentColor" p-id="5270"></path></svg>