<?xml version="1.0" standalone="no"?><!DOCTYPE svg PUBLIC "-//W3C//DTD SVG 1.1//EN" "http://www.w3.org/Graphics/SVG/1.1/DTD/svg11.dtd"><svg t="1723789930096" class="icon" viewBox="0 0 1024 1024" version="1.1" xmlns="http://www.w3.org/2000/svg" p-id="2407" width="50" height="50" xmlns:xlink="http://www.w3.org/1999/xlink"><path d="M946.123282 403.37703L527.702305 73.454557a27.886541 27.886541 0 0 0-34.608348 0L74.687315 403.37703c-12.118707 9.55285-14.206409 27.129889-4.640248 39.247572 5.512599 6.986993 13.701633 10.644312 21.957221 10.644312a27.866063 27.866063 0 0 0 17.290351-6.004064l56.237925-44.344473v518.484266c0 15.448382 12.513926 27.948998 27.947974 27.948997h649.595853c15.434047 0 27.947974-12.500616 27.947974-27.948997v-506.065561l40.489545 31.925768c12.117683 9.55285 29.694722 7.478458 39.247573-4.640248 9.568208-12.117683 7.480506-29.694722-4.638201-39.247572zM815.128418 893.456669H221.429536V370.105876a27.829203 27.829203 0 0 0-1.812277-9.833395L510.398643 130.988721 815.128418 371.264914v522.191755z" fill="currentColor" p-id="2408"></path><path d="M352.918937 484.194346m-51.858768 0a51.858768 51.858768 0 1 0 103.717536 0 51.858768 51.858768 0 1 0-103.717536 0Z" fill="currentColor" p-id="2409"></path><path d="M352.918937 632.089462m-51.858768 0a51.858768 51.858768 0 1 0 103.717536 0 51.858768 51.858768 0 1 0-103.717536 0Z" fill="currentColor" p-id="2410"></path><path d="M522.963764 632.089462m-51.858768 0a51.858768 51.858768 0 1 0 103.717536 0 51.858768 51.858768 0 1 0-103.717536 0Z" fill="currentColor" p-id="2411"></path><path d="M352.918937 779.984578m-51.858768 0a51.858768 51.858768 0 1 0 103.717536 0 51.858768 51.858768 0 1 0-103.717536 0Z" fill="currentColor" p-id="2412"></path><path d="M522.963764 779.984578m-51.858768 0a51.858768 51.858768 0 1 0 103.717536 0 51.858768 51.858768 0 1 0-103.717536 0Z" fill="currentColor" p-id="2413"></path><path d="M693.008591 779.984578m-51.858768 0a51.858768 51.858768 0 1 0 103.717536 0 51.858768 51.858768 0 1 0-103.717536 0Z" fill="currentColor" p-id="2414"></path></svg>