<?xml version="1.0" standalone="no"?><!DOCTYPE svg PUBLIC "-//W3C//DTD SVG 1.1//EN" "http://www.w3.org/Graphics/SVG/1.1/DTD/svg11.dtd"><svg t="1723790072331" class="icon" viewBox="0 0 1024 1024" version="1.1" xmlns="http://www.w3.org/2000/svg" p-id="6216" width="50" height="50" xmlns:xlink="http://www.w3.org/1999/xlink"><path d="M816.64 911.36H248.32A94.72 94.72 0 0 1 153.6 816.64V248.32A94.72 94.72 0 0 1 248.32 153.6h568.32a94.72 94.72 0 0 1 94.72 94.72v568.32a94.72 94.72 0 0 1-94.72 94.72zM248.32 200.96a47.36 47.36 0 0 0-47.36 47.36v568.32a47.36 47.36 0 0 0 47.36 47.36h568.32a47.36 47.36 0 0 0 47.36-47.36V248.32a47.36 47.36 0 0 0-47.36-47.36H248.32z" p-id="6217"></path><path d="M537.6 793.5488H366.9504A85.2992 85.2992 0 0 1 281.6 708.1984v-170.6496a85.3504 85.3504 0 0 1 85.3504-85.3504H537.6a85.3504 85.3504 0 0 1 85.2992 85.3504v170.6496a85.2992 85.2992 0 0 1-85.2992 85.3504zM366.9504 494.848a42.6496 42.6496 0 0 0-42.7008 42.7008v170.6496a42.6496 42.6496 0 0 0 42.7008 42.6496H537.6a42.6496 42.6496 0 0 0 42.6496-42.6496v-170.6496a42.7008 42.7008 0 0 0-42.6496-42.7008H366.9504z" p-id="6218"></path><path d="M708.2496 622.8992H537.6A85.2992 85.2992 0 0 1 452.2496 537.6V366.9504A85.3504 85.3504 0 0 1 537.6 281.6h170.6496A85.3504 85.3504 0 0 1 793.6 366.9504V537.6a85.3504 85.3504 0 0 1-85.3504 85.2992zM537.6 324.2496a42.6496 42.6496 0 0 0-42.7008 42.7008V537.6a42.6496 42.6496 0 0 0 42.7008 42.6496h170.6496a42.7008 42.7008 0 0 0 42.6496-42.6496V366.9504a42.7008 42.7008 0 0 0-42.6496-42.7008H537.6z" p-id="6219"></path></svg>