<?xml version="1.0" standalone="no"?><!DOCTYPE svg PUBLIC "-//W3C//DTD SVG 1.1//EN" "http://www.w3.org/Graphics/SVG/1.1/DTD/svg11.dtd"><svg t="1723789986998" class="icon" viewBox="0 0 1024 1024" version="1.1" xmlns="http://www.w3.org/2000/svg" p-id="3554" width="50" height="50" xmlns:xlink="http://www.w3.org/1999/xlink"><path d="M782.684 852H240.772c-27.57 0-50-22.43-50-50V221c0-27.57 22.43-50 50-50h541.912c27.57 0 50 22.43 50 50v581c0 27.57-22.43 50-50 50zM240.772 211c-5.42 0-10 4.58-10 10v581c0 5.421 4.58 10 10 10h541.912c5.421 0 10-4.579 10-10V221c0-5.42-4.579-10-10-10H240.772z" p-id="3555"></path><path d="M416.999 406c-11.014 0-19.961-8.909-19.999-19.932-0.038-11.045 8.886-20.03 19.932-20.068l292.229-1h0.069c11.015 0 19.961 8.909 19.999 19.932 0.038 11.045-8.886 20.03-19.932 20.068l-292.229 1h-0.069zM416.999 531.5c-11.014 0-19.961-8.909-19.999-19.932-0.038-11.045 8.886-20.03 19.932-20.068l292.229-1h0.069c11.015 0 19.961 8.909 19.999 19.932 0.038 11.046-8.886 20.03-19.932 20.068l-292.229 1h-0.069zM416.999 657c-11.014 0-19.961-8.909-19.999-19.932-0.038-11.046 8.886-20.03 19.932-20.068l292.229-1h0.069c11.015 0 19.961 8.909 19.999 19.932 0.038 11.046-8.886 20.03-19.932 20.068l-292.229 1h-0.069z" p-id="3556"></path><path d="M324.5 383.5m-23 0a23 23 0 1 0 46 0 23 23 0 1 0-46 0Z" p-id="3557"></path><path d="M324.5 509.5m-23 0a23 23 0 1 0 46 0 23 23 0 1 0-46 0Z" p-id="3558"></path><path d="M324.5 636m-23 0a23 23 0 1 0 46 0 23 23 0 1 0-46 0Z" p-id="3559"></path></svg>