<?xml version="1.0" standalone="no"?><!DOCTYPE svg PUBLIC "-//W3C//DTD SVG 1.1//EN" "http://www.w3.org/Graphics/SVG/1.1/DTD/svg11.dtd"><svg t="1723789993052" class="icon" viewBox="0 0 1024 1024" version="1.1" xmlns="http://www.w3.org/2000/svg" p-id="3745" width="50" height="50" xmlns:xlink="http://www.w3.org/1999/xlink"><path d="M238.803 863.356H170.51c-20.103 0-36.459-16.357-36.459-36.459V100.169c0-20.103 16.357-36.459 36.459-36.459h604.716c20.103 0 36.459 16.357 36.459 36.459v72.152H759.38v-56.306H186.356v695.036h52.447v52.305z" fill="currentColor" p-id="3746"></path><path d="M874.451 958.71H272.368c-20.829 0-37.776-16.947-37.776-37.776v-724.1c0-20.829 16.947-37.776 37.776-37.776h602.083c20.829 0 37.776 16.947 37.776 37.776v724.1c0 20.829-16.947 37.776-37.776 37.776z m-587.554-52.305h573.025V211.363H286.897v695.042z" fill="currentColor" p-id="3747"></path><path d="M474.408 594.594c-11.811 0-21.382 9.569-21.382 21.382 0 11.808 9.57 21.378 21.382 21.378h77.573v54.159c0 11.808 9.57 21.378 21.377 21.378 11.808 0 21.482-9.569 21.482-21.378v-54.159h77.473c11.808 0 21.478-9.57 21.478-21.378 0-11.911-9.67-21.382-21.478-21.382H594.84V556.52h77.473c11.808 0 21.478-9.569 21.478-21.377 0-11.808-9.67-21.379-21.478-21.379h-42.858l37.665-78.184c5.091-10.589 0.714-23.417-9.978-28.607-10.586-5.09-23.413-0.611-28.706 10.078l-46.526 96.713h-22.6l-46.521-96.713c-5.194-10.689-17.918-15.065-28.608-9.974-10.689 5.189-15.168 17.914-9.978 28.603l37.566 78.188h-37.36c-11.811 0-21.382 9.669-21.382 21.377 0 11.808 9.57 21.378 21.382 21.378h77.573v37.971h-77.574z" fill="currentColor" p-id="3748"></path></svg>